<svg width="12" height="10" viewBox="0 0 12 10" fill="none" xmlns="http://www.w3.org/2000/svg">
<path d="M6.2929 8.29289C5.90237 8.68341 5.90237 9.31658 6.29289 9.7071C6.68341 10.0976 7.31658 10.0976 7.7071 9.70711L11.7071 5.70711C11.8947 5.51957 12 5.26522 12 5C12 4.73478 11.8947 4.48043 11.7071 4.29289L7.7071 0.292892C7.31658 -0.0976322 6.68341 -0.0976302 6.29289 0.292896C5.90237 0.68342 5.90237 1.31659 6.29289 1.70711L8.5858 4H1C0.447715 4 0 4.44772 0 5C0 5.55229 0.447715 6 1 6H8.5858L6.2929 8.29289Z" fill="#8288A2"/>
</svg>
