<svg width="12" height="10" viewBox="0 0 12 10" fill="none" xmlns="http://www.w3.org/2000/svg">
<path d="M5.7071 1.70711C6.09763 1.31659 6.09763 0.683421 5.70711 0.292896C5.31658 -0.0976299 4.68342 -0.0976308 4.29289 0.292892L0.292873 4.29289C0.105335 4.48043 -2.23948e-05 4.73478 -2.23716e-05 5C-2.23484e-05 5.26522 0.105335 5.51957 0.292873 5.70711L4.2929 9.70711C4.68342 10.0976 5.31659 10.0976 5.70711 9.7071C6.09763 9.31658 6.09763 8.68341 5.70711 8.29289L3.4142 6L11 6C11.5523 6 12 5.55228 12 5C12 4.44771 11.5523 4 11 4L3.4142 4L5.7071 1.70711Z" fill="#8288A2"/>
</svg>
