<svg width="40" height="40" viewBox="0 0 40 40" fill="none" xmlns="http://www.w3.org/2000/svg">
<circle cx="20" cy="20" r="20" fill="#C3C9DB"/>
<path fill-rule="evenodd" clip-rule="evenodd" d="M20.0001 9C16.625 9 13.889 11.6863 13.889 15C13.889 18.3137 16.625 21 20.0001 21C23.3751 21 26.1112 18.3137 26.1112 15C26.1112 11.6863 23.3751 9 20.0001 9ZM16.3334 15C16.3334 13.0118 17.975 11.4 20.0001 11.4C22.0251 11.4 23.6667 13.0118 23.6667 15C23.6667 16.9882 22.0251 18.6 20.0001 18.6C17.975 18.6 16.3334 16.9882 16.3334 15Z" fill="#8288A2"/>
<path d="M15.1111 23.4C13.4903 23.4 11.936 24.0321 10.7899 25.1574C9.64385 26.2826 9 27.8087 9 29.4V31.8C9 32.4627 9.54721 33 10.2222 33C10.8972 33 11.4444 32.4627 11.4444 31.8V29.4C11.4444 28.4452 11.8308 27.5295 12.5184 26.8544C13.206 26.1793 14.1387 25.8 15.1111 25.8H24.8889C25.8613 25.8 26.794 26.1793 27.4816 26.8544C28.1692 27.5295 28.5556 28.4452 28.5556 29.4V31.8C28.5556 32.4627 29.1028 33 29.7778 33C30.4528 33 31 32.4627 31 31.8V29.4C31 27.8087 30.3562 26.2826 29.2101 25.1574C28.064 24.0321 26.5097 23.4 24.8889 23.4H15.1111Z" fill="#8288A2"/>
</svg>
