<svg width="48" height="48" viewBox="0 0 48 48" fill="none" xmlns="http://www.w3.org/2000/svg">
<path fill-rule="evenodd" clip-rule="evenodd" d="M31.326 7.54683C27.7805 5.96704 23.8193 5.57567 20.0331 6.43109C16.247 7.28652 12.8388 9.34291 10.3169 12.2936C7.79498 15.2442 6.29442 18.931 6.03902 22.8042C5.78363 26.6773 6.78708 30.5293 8.89973 33.7856C11.0124 37.0418 14.121 39.5279 17.762 40.8731C21.4031 42.2182 25.3814 42.3504 29.1036 41.2498C32.8259 40.1493 36.0927 37.875 38.4168 34.7661C40.7409 31.6572 41.9978 27.8804 42 23.9988V22.16C42 21.0554 42.8954 20.16 44 20.16C45.1046 20.16 46 21.0554 46 22.16V24C45.9973 28.7441 44.4611 33.3614 41.6205 37.1611C38.78 40.9609 34.7872 43.7406 30.2378 45.0857C25.6883 46.4308 20.826 46.2693 16.3758 44.6252C11.9257 42.9811 8.12624 39.9425 5.54411 35.9627C2.96199 31.9828 1.73554 27.2749 2.04769 22.541C2.35984 17.8072 4.19386 13.301 7.27622 9.69468C10.3586 6.08832 14.5241 3.57496 19.1516 2.52944C23.7791 1.48392 28.6206 1.96226 32.954 3.89312C33.963 4.34268 34.4164 5.52503 33.9669 6.53397C33.5173 7.54292 32.335 7.99639 31.326 7.54683Z" fill="#4DC87E"/>
<path fill-rule="evenodd" clip-rule="evenodd" d="M45.4135 6.58508C46.1949 7.36574 46.1956 8.63207 45.4149 9.41351L25.4149 29.4335C25.0399 29.8089 24.5311 30.0199 24.0005 30.02C23.4699 30.0201 22.961 29.8094 22.5858 29.4342L16.5858 23.4342C15.8047 22.6532 15.8047 21.3868 16.5858 20.6058C17.3668 19.8247 18.6332 19.8247 19.4142 20.6058L23.9993 25.1909L42.5851 6.58649C43.3657 5.80505 44.6321 5.80442 45.4135 6.58508Z" fill="#4DC87E"/>
</svg>
