<svg width="48" height="48" viewBox="0 0 48 48" fill="none" xmlns="http://www.w3.org/2000/svg">
<path fill-rule="evenodd" clip-rule="evenodd" d="M4 6C5.10457 6 6 6.89543 6 8V18H16C17.1046 18 18 18.8954 18 20C18 21.1046 17.1046 22 16 22H4C2.89543 22 2 21.1046 2 20V8C2 6.89543 2.89543 6 4 6Z" fill="#EF223A"/>
<path fill-rule="evenodd" clip-rule="evenodd" d="M23.2107 4.21376C27.5046 3.60964 31.8784 4.41736 35.6733 6.5152C39.4682 8.61305 42.4785 11.8874 44.2506 15.8448C46.0227 19.8023 46.4607 24.2285 45.4986 28.4565C44.5364 32.6846 42.2263 36.4854 38.9162 39.2863C35.6061 42.0872 31.4753 43.7365 27.1464 43.9857C22.8174 44.2348 18.5247 43.0703 14.9151 40.6677C11.3055 38.265 8.57453 34.7543 7.13366 30.6646C6.76661 29.6228 7.31361 28.4807 8.35541 28.1137C9.39722 27.7466 10.5393 28.2936 10.9064 29.3354C12.0591 32.6072 14.2438 35.4158 17.1315 37.3379C20.0192 39.26 23.4533 40.1916 26.9165 39.9923C30.3797 39.7929 33.6843 38.4735 36.3324 36.2328C38.9805 33.992 40.8286 30.9514 41.5983 27.569C42.368 24.1865 42.0176 20.6456 40.5999 17.4796C39.1822 14.3136 36.774 11.6942 33.7381 10.0159C30.7022 8.33763 27.2031 7.69145 23.768 8.17475C20.3329 8.65804 17.148 10.2446 14.693 12.6954C14.6787 12.7097 14.6643 12.7237 14.6496 12.7375L5.36956 21.4575C4.5646 22.2139 3.29888 22.1745 2.5425 21.3696C1.78612 20.5646 1.82549 19.2989 2.63045 18.5425L11.889 9.84269C14.9547 6.79164 18.9271 4.81644 23.2107 4.21376Z" fill="#EF223A"/>
</svg>
