<svg width="158" height="156" viewBox="0 0 158 156" fill="none" xmlns="http://www.w3.org/2000/svg">
<path d="M84.2667 12.3643C78.605 0.217665 68.9933 2.14254 68.9933 2.14254C86.9658 -5.09234 96.7092 8.31543 96.7092 8.31543C90.9158 14.5547 84.2667 12.3643 84.2667 12.3643Z" fill="#357CBD"/>
<path d="M67.8742 23.4489C67.8742 23.4489 70.5733 22.0551 72.0875 15.9486C73.6675 9.84206 79.4608 6.98793 79.4608 6.98793C79.4608 6.98793 67.0183 -5.49059 57.6042 14.0237C57.6042 14.0237 65.3067 15.5503 67.8742 23.4489Z" fill="#357CBD"/>
<path d="M75.84 26.9004C77.815 28.6926 80.8433 28.5598 82.6208 26.5686C84.3983 24.5109 84.2008 21.4577 82.2917 19.6656C80.3167 17.8734 77.2883 18.0062 75.5108 19.9974C73.7333 21.9887 73.865 25.1083 75.84 26.9004Z" fill="#357CBD"/>
<path d="M0 48.4724H61.7517C63.0025 49.7335 64.1875 50.8619 65.57 51.7911H0V48.4724Z" fill="#357CBD"/>
<path d="M95.985 48.4724H157.605V51.7911H92.1667C93.5492 50.8619 94.8 49.7335 95.985 48.4724Z" fill="#357CBD"/>
<path d="M27.9792 127.459H35.0233V128.72H29.4275V138.477H27.9792V127.459Z" fill="#357CBD"/>
<path fill-rule="evenodd" clip-rule="evenodd" d="M34.4967 134.494C34.4967 132.968 34.9575 131.972 35.7475 131.176C36.4058 130.578 37.1958 130.379 38.2492 130.379C39.2367 130.379 40.1583 130.711 40.8167 131.441C41.475 132.105 41.8042 133.167 41.8042 134.428C41.8042 135.49 41.6725 136.287 41.3433 136.818C41.0142 137.415 40.685 137.88 40.0267 138.211C39.4342 138.543 38.9075 138.676 38.2492 138.676C37.13 138.676 36.2083 138.344 35.55 137.614C34.8258 136.95 34.4967 135.888 34.4967 134.494ZM35.8133 134.494C35.8133 135.556 36.0108 136.353 36.4717 136.818C36.9325 137.282 37.4592 137.614 38.1175 137.614C38.71 137.614 39.2367 137.282 39.6975 136.818C40.1583 136.353 40.3558 135.556 40.3558 134.494C40.3558 133.432 40.0925 132.636 39.6975 132.171C39.2367 131.707 38.71 131.375 38.1175 131.375C37.4592 131.375 36.8667 131.707 36.4717 132.171C36.0767 132.636 35.8133 133.499 35.8133 134.494Z" fill="#357CBD"/>
<path d="M48.3875 135.556L49.77 135.756C49.6383 136.685 49.3092 137.349 48.6508 137.946C48.0583 138.411 47.4 138.61 46.4783 138.61C45.4908 138.61 44.5692 138.278 43.9108 137.548C43.2525 136.884 42.9233 135.822 42.9233 134.428C42.9233 133.632 43.1208 132.835 43.3842 132.238C43.7133 131.574 44.0425 131.109 44.7008 130.777C45.2933 130.446 45.82 130.313 46.4783 130.313C47.4 130.313 48.0583 130.512 48.6508 130.91C49.1775 131.375 49.5725 132.039 49.6383 132.835L48.3217 132.968C48.19 132.503 47.9925 132.039 47.7292 131.839C47.6766 131.808 47.6241 131.774 47.571 131.74C47.2915 131.562 46.9973 131.375 46.61 131.375C45.9517 131.375 45.3592 131.574 44.9642 132.171C44.5033 132.636 44.3717 133.432 44.3717 134.494C44.3717 135.556 44.5033 136.353 44.9642 136.818C45.425 137.415 45.82 137.614 46.5442 137.614C47.1367 137.614 47.4658 137.415 47.9267 137.017C48.19 136.818 48.3875 136.22 48.3875 135.556Z" fill="#357CBD"/>
<path d="M50.955 130.512H52.2058V133.963C52.6667 133.963 52.8642 133.963 53.1275 133.764C53.2592 133.632 53.5883 133.034 53.7858 132.37C53.8767 132.187 53.9575 132.019 54.0297 131.869L54.0303 131.868C54.2193 131.475 54.3489 131.205 54.4442 131.109C54.6417 130.91 54.7733 130.777 55.0367 130.645C55.2342 130.512 55.6292 130.512 56.0242 130.512H56.2875V131.64H55.9583C55.6292 131.64 55.3658 131.64 55.3 131.773C55.2227 131.851 55.1681 131.998 55.083 132.226L55.0827 132.227C55.0228 132.387 54.9478 132.589 54.8392 132.835C54.7998 132.928 54.7631 133.02 54.7274 133.11L54.7271 133.111C54.5839 133.472 54.4573 133.791 54.2467 133.897C54.115 134.096 53.7858 134.362 53.4567 134.494C53.9833 134.627 54.5758 135.158 55.1683 136.087L56.6167 138.61H55.1683L53.8517 136.087C53.5225 135.623 53.2592 135.291 53.0617 135.158C52.8642 134.959 52.6008 134.959 52.2717 134.959V138.676H50.955V130.512Z" fill="#357CBD"/>
<path fill-rule="evenodd" clip-rule="evenodd" d="M57.1433 134.494C57.1433 132.968 57.6042 131.972 58.3942 131.176C59.0525 130.578 59.8425 130.379 60.8958 130.379C61.8833 130.379 62.805 130.711 63.4633 131.441C64.1217 132.105 64.4508 133.167 64.4508 134.428C64.4508 135.49 64.3192 136.287 63.99 136.818C63.6608 137.415 63.3317 137.88 62.6733 138.211C62.0808 138.543 61.5542 138.676 60.8958 138.676C59.7767 138.676 58.855 138.344 58.1967 137.614C57.4725 136.95 57.1433 135.888 57.1433 134.494ZM58.5258 134.494C58.5258 135.556 58.7233 136.353 59.1842 136.818C59.645 137.282 60.1717 137.614 60.8958 137.614C61.4883 137.614 62.015 137.282 62.4758 136.818C62.9367 136.353 63.1342 135.556 63.1342 134.494C63.1342 133.432 62.9367 132.636 62.4758 132.171C62.015 131.707 61.4883 131.375 60.8958 131.375C60.2375 131.375 59.645 131.707 59.1842 132.171C58.7233 132.636 58.5258 133.499 58.5258 134.494Z" fill="#357CBD"/>
<path fill-rule="evenodd" clip-rule="evenodd" d="M66.0308 130.512H67.2817V131.508C67.4792 131.176 67.8083 130.844 68.2033 130.578C68.6642 130.446 68.9933 130.379 69.52 130.379C70.1783 130.379 70.7708 130.512 71.2975 130.844C71.7583 131.176 72.2192 131.773 72.4167 132.304C72.6142 132.968 72.7458 133.698 72.7458 134.362C72.7458 135.291 72.6142 135.955 72.4167 136.685C72.0875 137.282 71.6267 137.813 71.0342 138.211C70.5733 138.543 69.915 138.676 69.3883 138.676C68.9275 138.676 68.5983 138.676 68.2692 138.477C67.9434 138.336 67.7493 138.162 67.5704 138.002L67.5696 138.001C67.4958 137.935 67.4243 137.871 67.3475 137.813V141.597H66.0308V130.512ZM67.2817 134.494C67.2817 135.556 67.4792 136.353 67.8083 136.818C68.2692 137.415 68.73 137.614 69.2567 137.614C69.915 137.614 70.3758 137.282 70.8367 136.818C71.2975 136.353 71.4292 135.556 71.4292 134.428C71.4292 133.499 71.2975 132.702 70.8367 132.105C70.3758 131.64 69.915 131.441 69.3883 131.441C68.7958 131.441 68.2692 131.64 67.94 132.238C67.4792 132.769 67.2817 133.499 67.2817 134.494Z" fill="#357CBD"/>
<path d="M74.5233 130.512H80.6458V138.543H79.3292V131.64H75.84V138.543H74.5233V130.512Z" fill="#357CBD"/>
<path fill-rule="evenodd" clip-rule="evenodd" d="M82.0942 134.494C82.0942 132.968 82.555 131.972 83.345 131.176C84.0033 130.578 84.7933 130.379 85.8467 130.379C86.8342 130.379 87.7558 130.711 88.4142 131.441C89.0725 132.105 89.4017 133.167 89.4017 134.428C89.4017 135.49 89.27 136.287 88.9408 136.818C88.6117 137.415 88.2825 137.88 87.6242 138.211C87.0317 138.543 86.505 138.676 85.8467 138.676C84.7275 138.676 83.8058 138.344 83.1475 137.614C82.4233 136.95 82.0942 135.888 82.0942 134.494ZM83.4108 134.494C83.4108 135.556 83.6083 136.353 84.0692 136.818C84.53 137.282 85.0567 137.614 85.7808 137.614C86.3733 137.614 86.9 137.282 87.3608 136.818C87.8217 136.353 88.0192 135.556 88.0192 134.494C88.0192 133.432 87.7558 132.636 87.3608 132.171C86.9 131.707 86.3733 131.375 85.7808 131.375C85.1225 131.375 84.53 131.707 84.0692 132.171C83.6742 132.636 83.4108 133.499 83.4108 134.494Z" fill="#357CBD"/>
<path fill-rule="evenodd" clip-rule="evenodd" d="M90.9817 130.512H92.2325V131.508C92.43 131.176 92.825 130.844 93.1542 130.578C93.615 130.446 93.9442 130.379 94.4708 130.379C95.1292 130.379 95.7217 130.512 96.2483 130.844C96.7092 131.176 97.17 131.773 97.3675 132.304C97.565 132.968 97.6967 133.698 97.6967 134.362C97.6967 135.291 97.565 135.955 97.3675 136.685C97.0383 137.282 96.5775 137.813 95.985 138.211C95.5242 138.543 94.8658 138.676 94.3392 138.676C93.8783 138.676 93.5492 138.676 93.22 138.477C92.8943 138.336 92.7001 138.162 92.5212 138.002C92.4471 137.936 92.3755 137.872 92.2983 137.813V141.597H90.9817V130.512ZM92.1667 134.494C92.1667 135.556 92.3642 136.353 92.7592 136.818C93.22 137.415 93.615 137.614 94.2075 137.614C94.8658 137.614 95.3267 137.282 95.7875 136.818C96.2483 136.353 96.3142 135.556 96.3142 134.428C96.3142 133.499 96.1825 132.702 95.7875 132.105C95.3267 131.64 94.8658 131.441 94.3392 131.441C93.7467 131.441 93.22 131.64 92.8908 132.238C92.43 132.769 92.1667 133.499 92.1667 134.494Z" fill="#357CBD"/>
<path fill-rule="evenodd" clip-rule="evenodd" d="M104.412 137.481C103.951 137.946 103.49 138.278 103.029 138.411C102.503 138.61 102.042 138.61 101.449 138.61C100.659 138.61 100.001 138.477 99.54 138.012C99.0792 137.548 98.8817 136.95 98.8817 136.287C98.8817 135.955 98.8817 135.623 99.145 135.291C99.3425 134.959 99.6058 134.694 99.8033 134.494C99.9436 134.438 100.072 134.369 100.204 134.299C100.381 134.204 100.564 134.106 100.791 134.03C100.863 134.03 100.953 134.012 101.067 133.99C101.265 133.95 101.534 133.897 101.91 133.897C103.029 133.764 103.819 133.565 104.28 133.432V133.101C104.28 132.503 104.148 132.105 103.951 131.839C103.622 131.64 103.095 131.375 102.371 131.375C101.844 131.375 101.383 131.508 101.054 131.707C100.749 131.891 100.614 132.304 100.438 132.84C100.424 132.882 100.41 132.924 100.396 132.968L99.145 132.769C99.2767 132.171 99.4742 131.707 99.6717 131.375C99.935 131.043 100.33 130.777 100.791 130.578C101.318 130.379 101.91 130.379 102.568 130.379C103.227 130.379 103.819 130.379 104.28 130.578C104.609 130.711 104.938 130.91 105.202 131.176C105.465 131.441 105.531 131.773 105.531 132.105C105.663 132.304 105.663 132.769 105.663 133.366V135.225C105.663 136.486 105.663 137.282 105.794 137.548C105.794 137.88 105.926 138.211 106.123 138.61H104.675C104.651 138.537 104.627 138.469 104.604 138.403L104.603 138.401L104.602 138.398L104.602 138.397C104.498 138.105 104.412 137.859 104.412 137.481ZM104.346 134.494C103.885 134.694 103.095 134.826 102.239 134.959C102.114 134.991 101.996 135.019 101.886 135.044C101.536 135.127 101.271 135.19 101.12 135.291C101.066 135.327 101.007 135.359 100.947 135.39C100.788 135.475 100.623 135.563 100.528 135.756C100.396 135.888 100.33 136.087 100.33 136.353C100.33 136.685 100.462 137.083 100.791 137.282C100.988 137.481 101.449 137.614 101.91 137.614C102.437 137.614 102.898 137.481 103.227 137.282C103.688 137.017 104.017 136.685 104.148 136.353C104.346 136.021 104.346 135.556 104.346 134.959V134.494Z" fill="#357CBD"/>
<path d="M107.835 130.512H109.02V137.415H112.707V130.512H114.023V137.415H114.813V140.866H113.892V138.543H107.835V130.512Z" fill="#357CBD"/>
<path d="M117.644 130.512V136.618L121.331 130.512H122.648V138.543H121.397V132.437L117.71 138.543H116.262V130.512H117.644Z" fill="#357CBD"/>
<path fill-rule="evenodd" clip-rule="evenodd" d="M130.943 130.578V138.543H129.626V135.424H128.836C128.375 135.424 128.046 135.424 127.848 135.556C127.651 135.689 127.256 136.154 126.861 136.818L125.742 138.543H124.03L125.478 136.353C125.939 135.689 126.4 135.357 126.861 135.225C126.071 135.092 125.478 134.893 125.149 134.428C124.82 133.963 124.557 133.499 124.557 132.968C124.557 132.171 124.754 131.707 125.215 131.242C125.808 130.777 126.466 130.578 127.322 130.578H130.943ZM129.56 131.64H127.783C126.861 131.64 126.4 131.773 126.203 131.972C126.005 132.171 125.873 132.57 125.873 132.901C125.873 133.366 126.005 133.698 126.334 133.963C126.663 134.163 127.322 134.295 128.112 134.295H129.56V131.64Z" fill="#357CBD"/>
<path d="M44.1083 151.752L46.0175 155.204H44.8983L42.5283 151.752L44.8983 148.3H46.0175L44.1083 151.752Z" fill="#357CBD"/>
<path d="M46.9392 151.752L48.8483 155.204H47.7292L45.4908 151.752L47.7292 148.3H48.8483L46.9392 151.752Z" fill="#357CBD"/>
<path fill-rule="evenodd" clip-rule="evenodd" d="M51.0867 155.801V144.716H55.2342C55.8925 144.716 56.485 144.716 56.8142 144.849C57.4067 144.849 57.8017 145.048 58.1308 145.314C58.46 145.513 58.7892 145.911 59.0525 146.376C59.25 146.84 59.3817 147.438 59.3817 147.902C59.3817 148.898 59.0525 149.761 58.46 150.292C57.9333 150.955 56.8142 151.287 55.3 151.287H52.4692V155.801H51.0867ZM55.3658 149.96C56.2875 149.96 56.9458 149.827 57.275 149.495C57.7358 149.163 57.9333 148.566 57.9333 148.035C57.9333 147.57 57.8017 147.106 57.4725 146.907C57.275 146.575 57.0117 146.309 56.5508 146.176C56.3533 146.044 55.8925 146.044 55.3 146.044H52.4692V149.96H55.3658Z" fill="#357CBD"/>
<path fill-rule="evenodd" clip-rule="evenodd" d="M59.8425 151.752C59.8425 150.292 60.3033 149.23 61.0933 148.433C61.7517 147.836 62.5417 147.637 63.5292 147.637C64.5167 147.637 65.4383 147.969 66.0967 148.632C66.755 149.296 67.0842 150.358 67.0842 151.619C67.0842 152.681 66.9525 153.478 66.6233 154.009C66.4258 154.606 65.965 155.071 65.3067 155.403C64.7142 155.735 64.1875 155.867 63.5292 155.867C62.41 155.867 61.4883 155.535 60.83 154.805C60.1717 154.208 59.8425 153.146 59.8425 151.752ZM61.225 151.752C61.225 152.748 61.4225 153.611 61.8833 154.075C62.3442 154.54 62.8708 154.872 63.595 154.872C64.2533 154.872 64.7142 154.54 65.175 154.075C65.6358 153.611 65.8333 152.814 65.8333 151.752C65.8333 150.69 65.6358 149.893 65.175 149.429C64.7142 148.964 64.1217 148.632 63.595 148.632C62.9367 148.632 62.3442 148.964 61.8833 149.429C61.4225 149.96 61.225 150.69 61.225 151.752Z" fill="#357CBD"/>
<path d="M75.1158 153.079C74.9842 154.009 74.655 154.673 73.9967 155.27C73.4042 155.734 72.7458 156 71.8242 156C70.8367 156 69.915 155.668 69.2567 154.938C68.5983 154.274 68.2692 153.212 68.2692 151.818C68.2692 151.022 68.4667 150.225 68.73 149.495C69.0592 148.898 69.3883 148.433 70.0467 148.101C70.5733 147.77 71.1658 147.637 71.8242 147.637C72.7458 147.637 73.4042 147.836 73.9967 148.168C74.5892 148.632 74.9183 149.296 74.9842 150.093L73.7333 150.225C73.5358 149.761 73.2725 149.296 73.075 149.097C72.7458 148.765 72.4167 148.632 71.9558 148.632C71.2975 148.632 70.705 148.831 70.31 149.429C69.8492 149.893 69.7175 150.69 69.7175 151.752C69.7175 152.748 69.8492 153.611 70.31 154.075C70.7708 154.673 71.1658 154.872 71.89 154.872C72.4825 154.872 72.8117 154.673 73.2725 154.274C73.5358 154.075 73.7992 153.478 73.7992 152.814L75.1158 153.079Z" fill="#357CBD"/>
<path fill-rule="evenodd" clip-rule="evenodd" d="M81.3739 154.788L81.292 154.852C80.7772 155.257 80.41 155.546 79.9875 155.668C79.5267 155.867 79.0658 155.867 78.5392 155.867C77.6833 155.867 76.9592 155.668 76.4983 155.27C76.0375 154.805 75.84 154.274 75.84 153.544C75.84 153.212 75.9717 152.88 76.1692 152.549C76.3008 152.217 76.4983 151.951 76.8275 151.752C77.025 151.619 77.42 151.42 77.7492 151.287C77.8545 151.287 77.9809 151.266 78.1326 151.241C78.3601 151.202 78.6445 151.155 79 151.155C79.8311 151.043 80.5224 150.884 81.0737 150.758L81.0755 150.757L81.1615 150.737C81.2335 150.721 81.303 150.705 81.37 150.69V150.358C81.37 149.761 81.2383 149.296 80.9092 149.097C80.58 148.831 80.1192 148.632 79.4608 148.632C78.8025 148.632 78.3417 148.765 78.1442 148.964C77.815 149.23 77.6175 149.628 77.4858 150.225L76.1033 149.96C76.235 149.362 76.4325 148.964 76.6958 148.566C77.025 148.234 77.3542 147.969 77.9467 147.77C78.4075 147.57 79.0658 147.57 79.7242 147.57C80.3825 147.57 80.8433 147.57 81.3042 147.77C81.765 147.902 82.0942 148.101 82.16 148.367C82.3629 148.571 82.4485 148.815 82.5374 149.068C82.5638 149.144 82.5906 149.22 82.6208 149.296C82.6208 149.369 82.6385 149.477 82.6608 149.615C82.6996 149.853 82.7525 150.179 82.7525 150.557V154.739C82.8292 154.932 82.8836 155.126 82.9416 155.332C82.9832 155.48 83.0267 155.635 83.0817 155.801H81.765C81.5017 155.469 81.4358 155.071 81.4358 154.739L81.3739 154.788ZM79.0658 152.217C80.0169 152.089 80.6627 151.961 81.2383 151.774V152.15C81.2383 152.748 81.1725 153.212 81.0408 153.544C80.7775 153.876 80.4483 154.208 80.1192 154.473C79.7242 154.673 79.2633 154.805 78.8025 154.805C78.21 154.805 77.8808 154.673 77.5517 154.473C77.3542 154.208 77.2225 153.876 77.2225 153.544C77.2225 153.345 77.2225 153.079 77.3542 152.88C77.4506 152.783 77.5822 152.722 77.7492 152.643C77.8103 152.615 77.8761 152.584 77.9467 152.549C78.077 152.461 78.3221 152.402 78.6062 152.334L78.6069 152.334C78.7529 152.299 78.9096 152.262 79.0658 152.217Z" fill="#357CBD"/>
<path d="M83.6742 147.703H89.9942V148.831H87.4925V155.735H86.1758V148.831H83.6742V147.703Z" fill="#357CBD"/>
<path fill-rule="evenodd" clip-rule="evenodd" d="M90.5208 151.752C90.5208 150.292 90.9817 149.23 91.7717 148.433C92.43 147.836 93.22 147.637 94.2733 147.637C95.3925 147.637 96.2483 147.969 96.9725 148.632C97.6308 149.296 97.96 150.358 97.96 151.619C97.96 152.681 97.7625 153.478 97.4992 154.009C97.17 154.606 96.7092 155.071 96.1825 155.403C95.59 155.735 94.9317 155.867 94.2733 155.867C93.1542 155.867 92.3642 155.535 91.5742 154.805C90.85 154.208 90.5208 153.146 90.5208 151.752ZM91.9692 151.752C91.9692 152.748 92.1667 153.611 92.4958 154.075C92.9567 154.54 93.4833 154.872 94.2075 154.872C94.8658 154.872 95.4583 154.54 95.8533 154.075C96.3142 153.611 96.5117 152.814 96.5117 151.752C96.5117 150.69 96.2483 149.893 95.8533 149.429C95.3925 148.964 94.8658 148.632 94.2075 148.632C93.5492 148.632 92.9567 148.964 92.4958 149.429C92.1667 149.96 91.9692 150.69 91.9692 151.752Z" fill="#357CBD"/>
<path d="M101.515 147.703L103.556 154.141L105.926 147.703H107.835V155.735H106.518V149.362L104.148 155.801H103.029L100.791 149.031V155.801H99.54V147.703H101.515Z" fill="#357CBD"/>
<path d="M114.682 151.752L112.773 148.3H113.76L116.13 151.752L113.76 155.204H112.773L114.682 151.752Z" fill="#357CBD"/>
<path d="M111.719 151.752L109.81 148.3H110.929L113.299 151.752L110.929 155.204H109.81L111.719 151.752Z" fill="#357CBD"/>
<path d="M0 77.4783H157.671V80.797H0V77.4783Z" fill="#357CBD"/>
<path fill-rule="evenodd" clip-rule="evenodd" d="M14.9442 65.1325C14.9442 67.3229 14.1542 69.0486 12.7058 70.4425C11.2575 71.8364 9.54583 72.5001 7.43917 72.5001C5.39833 72.5001 3.62083 71.8364 2.30417 70.5753C0.855832 69.1814 0.0658323 67.4556 0.0658323 65.2653C0.0658323 63.3404 0.855832 61.5482 2.30417 60.2207C3.7525 58.8269 5.53 58.1631 7.7025 58.1631C9.80917 58.1631 11.5208 58.8269 12.9692 60.2207C14.2858 61.6146 14.9442 63.3404 14.9442 65.1325ZM2.37 65.1325C2.37 66.6591 2.83083 67.9866 3.68667 69.1814C4.67417 70.4425 6.05667 71.0399 7.505 71.0399C9.085 71.0399 10.3358 70.5753 11.1917 69.5133C12.0475 68.4513 12.5083 67.1901 12.5083 65.5971C12.5083 64.0041 12.0475 62.6102 11.1917 61.4819C10.27 60.2207 8.95333 59.6234 7.505 59.6234C5.925 59.6234 4.67417 60.088 3.68667 61.15C2.83083 62.1456 2.37 63.5395 2.37 65.1325Z" fill="#357CBD"/>
<path d="M147.335 69.0486L154.182 59.3579L154.379 59.026C154.577 58.8269 154.708 58.6941 154.708 58.4286H157.737C157.276 58.6277 157.078 59.026 156.947 59.3579C156.815 59.6897 156.815 60.1544 156.815 60.619V70.177C156.815 70.6416 156.815 70.9735 156.947 71.3054C156.954 71.3164 156.961 71.328 156.969 71.3401C156.979 71.3565 156.99 71.3739 157.002 71.3921L157.002 71.3927C157.134 71.6052 157.336 71.9288 157.737 72.1019H153.458C154.05 71.77 154.379 71.4381 154.511 70.9735C154.708 70.6416 154.708 70.177 154.708 69.4469V61.3491L148.191 70.4425C147.928 70.7744 147.73 71.0399 147.533 71.3718C147.664 71.5709 147.993 71.9691 148.322 72.1683H144.175C144.768 71.9691 144.965 71.5045 145.097 71.1063C145.197 70.853 145.221 70.5998 145.256 70.2286C145.267 70.1134 145.279 69.9866 145.294 69.8451V61.15C145.294 60.4862 145.162 59.8889 145.097 59.6234C144.965 59.1587 144.636 58.8269 144.175 58.5614L148.322 58.4286C147.862 58.7605 147.533 59.0924 147.467 59.557C147.335 59.8889 147.335 60.3535 147.335 61.15V69.0486Z" fill="#357CBD"/>
<path fill-rule="evenodd" clip-rule="evenodd" d="M137.658 66.1945C137.197 65.5971 136.736 65.2653 136.077 64.9334C135.551 64.6015 134.827 64.336 134.037 64.336C133.708 64.2033 132.983 64.2032 131.996 64.2032H131.667V61.0836C131.667 60.4199 131.667 59.8225 131.798 59.557C131.93 59.0924 132.259 58.7605 132.786 58.4286L128.77 58.5614C129.099 58.6941 129.363 59.026 129.56 59.4906C129.56 59.5935 129.58 59.7262 129.604 59.8889C129.642 60.146 129.692 60.4779 129.692 60.8845V69.7788C129.692 70.2649 129.604 70.6632 129.536 70.9735C129.528 71.0133 129.519 71.0516 129.512 71.0885L129.503 71.129L129.494 71.1726C129.362 71.77 129.165 72.1019 128.836 72.2346H133.773C135.09 72.2346 136.275 71.9028 137.131 71.3054C137.921 70.6416 138.382 69.7124 138.382 68.5176C138.316 67.6547 138.118 66.8583 137.658 66.1945ZM131.733 65.929L133.312 65.7299H133.642C134.432 65.7299 134.958 65.929 135.419 66.3273C135.88 66.7919 136.077 67.4556 136.077 68.1858C136.077 68.9823 135.748 69.7124 135.156 70.1106C134.695 70.4425 134.037 70.708 133.115 70.708C132.654 70.708 132.128 70.708 131.667 70.5753V65.929H131.733Z" fill="#357CBD"/>
<path fill-rule="evenodd" clip-rule="evenodd" d="M24.8192 64.9334C24.5558 64.6679 24.2267 64.4688 23.8975 64.336C23.2392 64.0041 22.5808 63.7386 21.6592 63.6722H18.96V60.088C19.2892 60.088 19.6183 60.088 19.8817 59.9552H21.0008C21.5275 59.9552 21.9883 60.088 22.4492 60.2207C22.7783 60.2207 23.2392 60.4199 23.4367 60.8181V58.3622C23.305 58.495 23.1075 58.495 22.91 58.495H22.4492L15.9317 58.6277C16.3925 58.7605 16.59 59.0924 16.7217 59.557C16.8533 59.8889 16.8533 60.3535 16.8533 61.0836V69.8451C16.8533 70.5089 16.8533 70.9735 16.7217 71.3718C16.59 71.8364 16.3925 72.1683 15.9317 72.301H21.6592C22.5808 72.1683 23.2392 71.9691 23.8975 71.7036C24.5558 71.3718 25.1483 70.7744 25.6092 70.1106C26.2017 69.5133 26.3992 68.8495 26.3992 68.053C26.3992 66.991 26.07 66.1945 25.4117 65.5307C25.28 65.2653 25.0825 65.0661 24.8192 64.9334ZM18.96 65.2653L20.7375 65.1325H21.0667C21.725 65.1325 22.3175 65.2653 22.7783 65.4644C22.7783 65.4644 22.91 65.5971 22.9758 65.5971C23.6342 66.1945 24.095 67.1238 24.095 68.1194C24.095 68.9159 23.7658 69.646 23.1733 70.0443C22.6467 70.5089 21.9225 70.6416 21.0667 70.6416H20.7375L18.96 70.5089V65.2653Z" fill="#357CBD"/>
<path d="M27.65 72.1683C28.1108 72.0355 28.3083 71.7036 28.44 71.239C28.5717 70.9071 28.5717 70.4425 28.5717 69.8451V60.6854C28.5717 60.088 28.5717 59.6234 28.44 59.2915C28.3083 58.8269 28.1108 58.6277 27.65 58.495L31.6 58.3622C31.2708 58.495 30.9417 58.8269 30.81 59.2915C30.6783 59.6234 30.6783 60.2207 30.6783 60.8181V70.5089C30.81 70.5089 31.0075 70.5089 31.4683 70.6416H33.8383C34.1675 70.5089 34.4967 70.5089 34.76 70.5089V60.8181C34.76 60.4759 34.7168 60.1772 34.6799 59.9221C34.6524 59.7319 34.6283 59.566 34.6283 59.4242C34.4308 58.9596 34.1675 58.7605 33.8383 58.6277L37.6567 58.495C37.3275 58.6277 37.0642 58.9596 36.9983 59.4242C36.8667 59.7561 36.735 60.3535 36.735 60.9509V70.6416C36.8667 70.6416 37.1958 70.6416 37.525 70.7744H40.0267C40.3558 70.6416 40.5533 70.6416 40.8167 70.6416V60.8181C40.8167 60.2207 40.8167 59.7561 40.685 59.4242C40.5533 58.9596 40.3558 58.7605 39.895 58.6277L43.845 58.495C43.5158 58.6277 43.1867 58.9596 43.055 59.4242C42.9233 59.8889 42.9233 60.3535 42.9233 60.9509V70.6416H44.1083L43.45 73.4958C43.2605 73.0499 43.0103 72.8485 42.6995 72.5983L42.66 72.5665C42.3308 72.301 41.8042 72.2346 41.08 72.2346H27.65V72.1683Z" fill="#357CBD"/>
<path d="M48.2558 70.4425L50.8233 70.6416H51.35C52.6667 70.6416 53.8517 70.3098 54.7075 69.3805L53.8517 72.1683H45.3592C45.6883 72.0355 45.9517 71.7036 46.1492 71.1063C46.2808 70.7744 46.2808 70.3098 46.2808 69.7124V60.8845C46.2808 60.2207 46.2808 59.7561 46.1492 59.4906C46.0175 59.026 45.6883 58.6941 45.3592 58.5614L51.8767 58.4286H52.2058C52.4692 58.4286 52.6667 58.4286 52.7983 58.2959L52.93 60.7517C52.6008 60.4199 52.2717 60.1544 51.8108 60.1544C51.4817 60.0216 51.0208 59.8889 50.4283 59.8889H49.3092C48.98 60.0216 48.6508 60.0216 48.3217 60.0216V63.9378H51.2842C51.4158 63.9378 51.6133 63.9377 51.745 63.805V65.9954C51.6133 65.7299 51.4158 65.5307 51.0867 65.5307C50.8892 65.398 50.4283 65.398 49.9675 65.398H48.3875V70.4425H48.2558Z" fill="#357CBD"/>
<path d="M65.7017 61.0172C65.0433 60.6854 64.4508 60.4199 63.7925 60.2207C63.2 59.9552 62.5417 59.8889 61.8833 59.8889C60.435 59.8889 59.3158 60.3535 58.3942 61.2827C57.6042 62.3447 57.1433 63.4731 57.1433 65.0661C57.1433 66.5928 57.6042 67.9202 58.46 69.115C59.4475 70.2434 60.6983 70.8408 62.2783 70.8408C62.9367 70.8408 63.7267 70.708 64.385 70.5089C65.0183 70.3493 65.5669 70.0617 66.0988 69.7829C66.2304 69.7139 66.361 69.6455 66.4917 69.5796L65.57 71.9691C65.111 72.1014 64.5213 72.2995 64.1264 72.4322L64.1254 72.4325L64.1217 72.4338C63.595 72.5665 63.0025 72.5665 62.4758 72.5665C60.1058 72.5665 58.1967 71.9691 56.88 70.6416C55.4317 69.3805 54.7733 67.6548 54.7733 65.3316C54.7733 63.274 55.4317 61.5482 56.8142 60.1544C58.065 58.8932 59.8425 58.1631 61.9492 58.1631C62.2454 58.1631 62.5252 58.1963 62.805 58.2295C63.0848 58.2627 63.3646 58.2959 63.6608 58.2959C64.3192 58.4286 64.9117 58.5614 65.7017 58.7605V61.0172Z" fill="#357CBD"/>
<path d="M72.5483 69.5133C72.5483 70.177 72.5483 70.6416 72.68 71.0399C72.8117 71.5045 73.1408 71.8364 73.6017 72.1683H69.52C69.8492 72.0355 70.1783 71.7036 70.31 71.239C70.4417 70.9071 70.4417 70.4425 70.4417 69.8451V59.9552H68.6642C68.2033 59.9552 67.7425 60.088 67.3475 60.2207C66.8867 60.3535 66.5575 60.5526 66.36 60.8181L66.8867 58.3622C67.0183 58.3622 67.2158 58.3622 67.3475 58.495H76.4325C76.4983 58.495 76.5477 58.4618 76.5971 58.4286C76.6465 58.3954 76.6958 58.3622 76.7617 58.3622L76.1692 60.8181C76.0375 60.5526 75.84 60.3535 75.5108 60.2207C75.1817 60.088 74.8525 59.9552 74.3917 59.9552H72.6142V69.5133H72.5483Z" fill="#357CBD"/>
<path fill-rule="evenodd" clip-rule="evenodd" d="M77.9467 60.7517C77.9467 60.1544 77.9467 59.6897 77.815 59.3579C77.6833 58.8932 77.3542 58.6941 77.025 58.5614L81.8308 58.4286C83.1475 58.4286 84.2008 58.6277 84.9908 59.2251C85.7808 59.8225 86.11 60.4862 86.11 61.4155C86.11 62.0792 85.9125 62.6766 85.5175 63.1412C85.1883 63.4731 84.7275 63.805 84.0692 64.2032C84.9908 64.4024 85.7808 64.8006 86.4392 65.4644C86.9658 66.0618 87.3608 66.8583 87.3608 67.8539C87.3608 68.6504 87.0975 69.3805 86.7025 69.9115C86.2417 70.5753 85.715 71.1726 84.9908 71.5045C84.8546 71.5457 84.7156 71.5898 84.5731 71.6349C84.0272 71.8078 83.4312 71.9966 82.7525 72.1019H77.025C77.3542 71.9691 77.6833 71.6373 77.815 71.1726C77.9467 70.8408 77.9467 70.3761 77.9467 69.646V60.7517ZM81.765 70.6416H82.2258C83.0158 70.6416 83.8058 70.5089 84.2667 70.0443C84.925 69.5796 85.1883 68.9159 85.1883 68.1194C85.1883 67.1238 84.8592 66.3936 84.0692 65.929C83.4108 65.4644 82.4892 65.2653 81.5017 65.2653L80.185 65.398V70.5753L81.765 70.6416ZM80.7117 64.0041C81.5017 64.0041 82.16 63.8714 82.7525 63.5395C83.5425 63.2076 83.8717 62.6102 83.8717 61.8137C83.8717 61.2164 83.6083 60.6854 83.2133 60.3535C82.7525 60.0216 82.2258 59.7561 81.6333 59.7561H81.4358L80.1192 59.8889V64.0041H80.7117Z" fill="#357CBD"/>
<path d="M91.8375 70.4425L94.405 70.6416H94.8658C96.1825 70.6416 97.3017 70.3098 98.2233 69.3805L97.3017 72.1683H88.875C89.2042 72.0355 89.4675 71.7036 89.665 71.1063C89.665 70.9646 89.689 70.7987 89.7165 70.6087C89.7534 70.3535 89.7967 70.0546 89.7967 69.7124V60.8845C89.7967 60.2207 89.7967 59.7561 89.665 59.4906C89.5333 59.026 89.2042 58.6941 88.875 58.5614L95.3925 58.4286H95.7217C95.9192 58.4286 96.1825 58.4286 96.2483 58.2959L96.38 60.7517C96.0508 60.4199 95.7217 60.1544 95.2608 60.1544C94.9317 60.0216 94.4708 59.8889 93.9442 59.8889H92.825C92.4958 60.0216 92.1667 60.0216 91.8375 60.0216V63.9378H94.8C94.9317 63.9378 95.1292 63.9377 95.2608 63.805V65.9954C95.1292 65.7299 94.9317 65.5307 94.6025 65.5307C94.405 65.398 93.9442 65.398 93.4833 65.398H91.9033V70.4425H91.8375Z" fill="#357CBD"/>
<path d="M102.305 65.5971V69.7124C102.305 70.3761 102.305 70.8408 102.437 71.1063C102.568 71.7036 102.766 71.9028 103.227 72.1683H99.2767C99.7375 72.0355 99.935 71.7036 100.067 71.239C100.198 70.9072 100.198 70.4426 100.198 69.8453V60.6854C100.198 60.0881 100.198 59.6233 100.067 59.2915C99.935 58.8269 99.7375 58.6277 99.2767 58.495L103.227 58.3622C102.766 58.495 102.568 58.8269 102.437 59.2915C102.305 59.6234 102.305 60.2207 102.305 60.8181V63.9378H109.613V60.7517C109.613 60.1544 109.613 59.6897 109.481 59.3579C109.349 58.8932 109.02 58.6941 108.691 58.5614L112.641 58.4286C112.18 58.5614 111.982 58.8932 111.851 59.3579C111.719 59.8225 111.719 60.2871 111.719 60.8845V69.7788C111.719 70.4425 111.719 70.9071 111.851 71.1726C111.982 71.77 112.18 71.9691 112.641 72.2346H108.691C109.02 72.1019 109.283 71.9028 109.349 71.5709C109.481 71.239 109.547 70.7744 109.547 69.9779V65.5971H102.305Z" fill="#357CBD"/>
<path d="M116.92 65.5971V69.7124C116.92 70.3761 116.92 70.8408 117.052 71.1063C117.169 71.6396 117.444 71.8555 117.736 72.0846L117.784 72.122L117.821 72.152L117.842 72.1683H114.023C114.352 72.0355 114.55 71.7036 114.682 71.239C114.813 70.9071 114.879 70.4425 114.879 69.8451V60.6854C114.879 60.1992 114.792 59.8009 114.724 59.4906C114.708 59.4196 114.694 59.3533 114.682 59.2915C114.55 58.8269 114.352 58.6277 114.023 58.495L117.842 58.3622C117.513 58.495 117.315 58.8269 117.183 59.2915C117.052 59.6234 116.986 60.2207 116.986 60.8181V63.9378H124.293V60.7517C124.293 60.1544 124.293 59.6897 124.162 59.3579C124.03 58.8932 123.833 58.6941 123.503 58.5614L127.322 58.4286C126.993 58.5614 126.729 58.8932 126.532 59.3579C126.4 59.8225 126.4 60.287 126.4 60.8844V69.7788C126.4 70.4424 126.4 70.9072 126.532 71.1726C126.649 71.706 126.924 71.9219 127.216 72.151C127.251 72.1785 127.286 72.2062 127.322 72.2346H123.503C123.701 72.1019 123.964 71.9028 124.03 71.5709C124.227 71.239 124.227 70.7744 124.227 69.9779V65.5971H116.92Z" fill="#357CBD"/>
<path d="M139.896 60.8181C139.896 60.2207 139.896 59.7561 139.764 59.4242C139.633 58.9596 139.435 58.7605 138.974 58.6277L142.924 58.495C142.463 58.6277 142.266 58.9596 142.134 59.4242C142.002 59.7561 142.002 60.3535 142.002 60.9509V69.8451C142.002 70.5089 142.002 70.9735 142.134 71.239C142.266 71.8364 142.463 72.0355 142.924 72.301H138.974C139.435 72.1683 139.633 71.8364 139.764 71.3718C139.896 71.0399 139.896 70.5753 139.896 69.9779V60.8181Z" fill="#357CBD"/>
<path d="M148.783 54.778C149.047 55.1099 149.376 55.4417 149.705 55.7072C149.746 55.7191 149.787 55.731 149.828 55.7429L149.83 55.7436C150.24 55.8632 150.615 55.9727 151.153 55.9727C151.614 55.9727 152.075 55.84 152.47 55.6409C152.931 55.5081 153.26 55.1762 153.458 54.8444H154.708C154.511 55.6409 154.05 56.2382 153.392 56.7029C152.733 57.1675 151.943 57.3666 151.153 57.3666C150.232 57.3666 149.573 57.1675 148.915 56.7029C148.257 56.2382 147.796 55.6409 147.467 54.8444H148.783V54.778Z" fill="#357CBD"/>
<path d="M0 120.157H157.671V123.609H0V120.157Z" fill="#357CBD"/>
<path d="M27.5183 116.44C24.3583 117.569 21.5933 118.166 18.8942 118.166C13.43 118.166 8.8875 116.573 5.39833 113.188C1.7775 110.002 0.131665 105.82 0.131665 100.643C0.131665 95.4659 2.04083 91.2179 5.85916 87.8991C9.41417 84.7795 13.6933 83.3193 18.7625 83.3193C21.7908 83.3193 24.6875 83.9166 27.5183 85.1778V95.3332C25.4117 93.4083 22.7783 92.3463 19.6842 92.3463C17.1825 92.3463 15.0758 93.1428 13.4958 94.8685C11.9158 96.4615 11.2575 98.5192 11.2575 100.975C11.2575 103.365 12.0475 105.356 13.6275 106.816C15.2075 108.409 17.2483 109.206 19.6842 109.206C22.9758 109.206 25.5433 108.144 27.5183 106.219V116.44Z" fill="#357CBD"/>
<path fill-rule="evenodd" clip-rule="evenodd" d="M70.0467 100.71C70.0467 105.621 68.335 109.67 64.9775 112.989C61.3567 116.44 56.5508 118.166 50.6258 118.166C44.7008 118.166 39.8292 116.44 36.2742 112.989C32.9167 109.67 31.1392 105.621 31.1392 100.71C31.1392 95.8642 32.9167 91.7489 36.2742 88.4965C39.895 85.045 44.7008 83.3193 50.6258 83.3193C56.5508 83.3193 61.4225 85.045 64.9775 88.4965C68.4008 91.7489 70.0467 95.8642 70.0467 100.71ZM58.9867 100.71C58.9867 98.3864 58.065 96.3288 56.485 94.8022C54.905 93.3419 52.9958 92.479 50.6258 92.479C48.2558 92.479 46.3467 93.2755 44.7667 94.8022C43.055 96.3288 42.3308 98.3864 42.3308 100.71C42.3308 103.099 43.1208 105.09 44.7667 106.683C46.3467 108.21 48.2558 108.874 50.6258 108.874C52.9958 108.874 54.905 108.144 56.485 106.683C58.065 105.024 58.9867 103.099 58.9867 100.71Z" fill="#357CBD"/>
<path fill-rule="evenodd" clip-rule="evenodd" d="M103.556 107.48C103.556 110.334 102.568 112.657 100.396 114.383C98.1575 116.241 94.8 117.237 90.2575 117.237H74.5233V84.2485H89.5992C93.2858 84.2485 96.2483 85.1778 98.1575 86.9035C99.8033 88.4302 100.659 90.2223 100.659 92.5454C100.659 95.3995 99.2108 97.5899 96.0508 98.9838C98.4208 99.5812 100.198 100.51 101.515 101.971C102.832 103.365 103.556 105.289 103.556 107.48ZM90.9817 94.3375C90.9817 92.4127 89.665 91.3507 87.0317 91.3507H85.1225V97.3244H86.3733C89.4017 97.3244 90.9817 96.4615 90.9817 94.3375ZM92.5617 107.015C92.5617 104.825 91.245 103.696 88.2825 103.696H85.1225V110.002H87.9533C89.27 110.002 90.3233 109.737 91.245 109.338C92.1008 108.741 92.5617 107.944 92.5617 107.015Z" fill="#357CBD"/>
<path d="M129.823 117.237H107.901V84.2485H129.823V92.4127H118.566V96.7934H129.033V104.493H118.566V109.006H129.823V117.237Z" fill="#357CBD"/>
<path d="M158 92.6118H150.561V117.237H139.764V92.6118H132.325V84.2485H158V92.6118Z" fill="#357CBD"/>
<path d="M84.5958 32.6087C84.5958 32.6087 82.0942 30.9493 76.0375 32.6751C69.9808 34.4008 64.6483 30.7502 64.6483 30.7502C64.6483 30.7502 60.2375 47.8086 81.6992 46.282C81.6992 46.282 79.1317 38.7816 84.5958 32.6087Z" fill="#357CBD"/>
<path d="M66.9525 23.7808C59.3817 34.7991 65.8333 42.2331 65.8333 42.2331C51.1554 30.6376 56.8384 16.0741 57.252 15.0142C57.2669 14.9759 57.275 14.9552 57.275 14.9529C65.5042 16.9442 66.9525 23.7808 66.9525 23.7808Z" fill="#357CBD"/>
<path d="M84.135 13.4263C84.135 13.4263 84.0033 16.4796 88.48 20.8603C92.9567 25.3074 92.4958 31.7458 92.4958 31.7458C92.4958 31.7458 109.415 27.0996 97.3017 9.11192C97.3675 9.1783 92.2325 15.1521 84.135 13.4263Z" fill="#357CBD"/>
<path d="M85.4517 33.2725C98.6842 34.3345 101.844 25.0419 101.844 25.0419C99.0792 44.3571 82.7525 46.1492 82.6867 46.1492C80.3167 37.9851 85.4517 33.2725 85.4517 33.2725Z" fill="#357CBD"/>
</svg>
