<svg width="24" height="22" viewBox="0 0 24 22" fill="none" xmlns="http://www.w3.org/2000/svg">
<path fill-rule="evenodd" clip-rule="evenodd" d="M2 17H6V19C6 20.6569 7.34315 22 9 22H21C22.6569 22 24 20.6569 24 19V3C24 1.34315 22.6569 0 21 0H9C7.34315 0 6 1.34315 6 3V5H2C0.895431 5 0 5.89543 0 7V15C0 16.1046 0.895431 17 2 17ZM9 2H21C21.5523 2 22 2.44772 22 3V19C22 19.5523 21.5523 20 21 20H9C8.44772 20 8 19.5523 8 19V17H18C19.1046 17 20 16.1046 20 15V7C20 5.89543 19.1046 5 18 5H8V3C8 2.44772 8.44771 2 9 2ZM18 7H2V15H18V7Z" fill="#8288A2"/>
</svg>
