<svg width="22" height="24" viewBox="0 0 22 24" fill="none" xmlns="http://www.w3.org/2000/svg">
<path fill-rule="evenodd" clip-rule="evenodd" d="M10.5559 2.34499C10.5556 2.34514 10.5553 2.34529 10.555 2.34544L2.5572 6.34433L2.55499 6.34544C2.38838 6.42822 2.24817 6.55585 2.15013 6.71396C2.05211 6.87201 2.00012 7.05427 1.99999 7.24025C1.99999 7.24018 1.99999 7.24031 1.99999 7.24025V16.7669C1.99869 16.9532 2.04948 17.1362 2.14666 17.2953C2.24368 17.454 2.38307 17.5826 2.54914 17.6665C2.54887 17.6663 2.54942 17.6666 2.54914 17.6665L10.5472 21.6655C10.6861 21.735 10.8396 21.7713 10.995 21.7713C11.1503 21.7713 11.3036 21.7351 11.4425 21.6656L19.4428 17.6655L19.445 17.6644C19.6116 17.5816 19.7518 17.454 19.8498 17.2959C19.9479 17.1377 19.9999 16.9554 20 16.7694V7.24044C19.9999 7.05439 19.9479 6.87207 19.8498 6.71396C19.7518 6.55585 19.6116 6.42823 19.445 6.34544L19.4428 6.34433L11.445 2.34544C11.4447 2.34529 11.4444 2.34514 11.4441 2.34499C11.306 2.27657 11.1541 2.24097 11 2.24097C10.8459 2.24097 10.6939 2.27657 10.5559 2.34499ZM11.89 1.44991L12.335 0.554375C11.9202 0.348238 11.4632 0.240967 11 0.240967C10.5368 0.240967 10.0798 0.348238 9.66499 0.554375L9.66277 0.555479L1.66499 4.55437C1.66458 4.55458 1.66416 4.55478 1.66375 4.55499C1.16448 4.80337 0.744302 5.186 0.450407 5.65994C0.15627 6.13427 0.000283731 6.68125 -1.24449e-05 7.23937L-1.25641e-05 16.7568C-0.00318276 17.3145 0.149212 17.8622 0.440093 18.3382C0.73164 18.8153 1.15071 19.2014 1.65001 19.4529L1.65277 19.4543L9.65249 23.4542C10.0693 23.6628 10.5289 23.7713 10.995 23.7713C11.4609 23.7713 11.9205 23.6628 12.3372 23.4543C12.3373 23.4543 12.3371 23.4544 12.3372 23.4543L20.335 19.4554C20.3353 19.4553 20.3357 19.4551 20.336 19.4549C20.8354 19.2066 21.2556 18.8239 21.5496 18.3499C21.8437 17.8755 21.9997 17.3286 22 16.7704V7.23991C21.9997 6.68178 21.8437 6.13427 21.5496 5.65994C21.2557 5.18602 20.8355 4.8034 20.3363 4.55501C20.3358 4.5548 20.3354 4.55459 20.335 4.55437L12.3372 0.555479L11.89 1.44991Z" fill="#8288A2"/>
<path fill-rule="evenodd" clip-rule="evenodd" d="M0.42556 5.71269C0.672549 5.21871 1.27322 5.01849 1.7672 5.26548L11 9.88187L20.2328 5.26548C20.7268 5.01849 21.3274 5.21871 21.5744 5.71269C21.8214 6.20667 21.6212 6.80734 21.1272 7.05433L11.4472 11.8943C11.1657 12.0351 10.8343 12.0351 10.5528 11.8943L0.872774 7.05433C0.378795 6.80734 0.178571 6.20667 0.42556 5.71269Z" fill="#8288A2"/>
<path fill-rule="evenodd" clip-rule="evenodd" d="M11 9.99991C11.5523 9.99991 12 10.4476 12 10.9999V22.7599C12 23.3122 11.5523 23.7599 11 23.7599C10.4477 23.7599 9.99999 23.3122 9.99999 22.7599V10.9999C9.99999 10.4476 10.4477 9.99991 11 9.99991Z" fill="#8288A2"/>
<path fill-rule="evenodd" clip-rule="evenodd" d="M5.10556 3.05269C5.35255 2.55871 5.95322 2.35849 6.4472 2.60548L16.4472 7.60548C16.9412 7.85247 17.1414 8.45314 16.8944 8.94712C16.6474 9.4411 16.0468 9.64132 15.5528 9.39433L5.55277 4.39433C5.0588 4.14734 4.85857 3.54667 5.10556 3.05269Z" fill="#8288A2"/>
</svg>
