<svg width="24" height="23" viewBox="0 0 24 23" fill="none" xmlns="http://www.w3.org/2000/svg">
<path fill-rule="evenodd" clip-rule="evenodd" d="M10.2472 14.096C9.79517 14.096 9.38917 14.002 9.02917 13.814C8.66917 13.626 8.38717 13.366 8.18317 13.034C7.97917 12.698 7.87717 12.32 7.87717 11.9C7.87717 11.48 7.97917 11.104 8.18317 10.772C8.38717 10.436 8.66917 10.174 9.02917 9.98598C9.38917 9.79798 9.79517 9.70398 10.2472 9.70398C10.6992 9.70398 11.1052 9.79798 11.4652 9.98598C11.8252 10.174 12.1072 10.436 12.3112 10.772C12.5152 11.104 12.6172 11.48 12.6172 11.9C12.6172 12.32 12.5152 12.698 12.3112 13.034C12.1072 13.366 11.8252 13.626 11.4652 13.814C11.1052 14.002 10.6992 14.096 10.2472 14.096ZM10.2472 12.95C10.4232 12.95 10.5812 12.908 10.7212 12.824C10.8652 12.736 10.9792 12.614 11.0632 12.458C11.1472 12.298 11.1892 12.112 11.1892 11.9C11.1892 11.688 11.1472 11.504 11.0632 11.348C10.9792 11.188 10.8652 11.066 10.7212 10.982C10.5812 10.894 10.4232 10.85 10.2472 10.85C10.0712 10.85 9.91117 10.894 9.76717 10.982C9.62717 11.066 9.51517 11.188 9.43117 11.348C9.34717 11.504 9.30517 11.688 9.30517 11.9C9.30517 12.112 9.34717 12.298 9.43117 12.458C9.51517 12.614 9.62717 12.736 9.76717 12.824C9.91117 12.908 10.0712 12.95 10.2472 12.95Z" fill="#8288A2"/>
<path fill-rule="evenodd" clip-rule="evenodd" d="M3.08813 9.79998H5.15813C5.62613 9.79998 6.03814 9.88598 6.39413 10.058C6.75414 10.226 7.03214 10.468 7.22814 10.784C7.42813 11.1 7.52814 11.472 7.52814 11.9C7.52814 12.328 7.42813 12.7 7.22814 13.016C7.03214 13.332 6.75414 13.576 6.39413 13.748C6.03814 13.916 5.62613 14 5.15813 14H3.08813V9.79998ZM5.09813 12.896C5.40213 12.896 5.64413 12.81 5.82413 12.638C6.00813 12.462 6.10013 12.216 6.10013 11.9C6.10013 11.584 6.00813 11.34 5.82413 11.168C5.64413 10.992 5.40213 10.904 5.09813 10.904H4.50414V12.896H5.09813Z" fill="#8288A2"/>
<path d="M14.1031 13.82C14.4591 14.004 14.8591 14.096 15.3031 14.096C15.7111 14.096 16.0751 14.024 16.3951 13.88C16.7151 13.736 16.9791 13.528 17.1871 13.256L16.2931 12.458C16.0331 12.786 15.7271 12.95 15.3751 12.95C15.0791 12.95 14.8411 12.856 14.6611 12.668C14.4811 12.476 14.3911 12.22 14.3911 11.9C14.3911 11.58 14.4811 11.326 14.6611 11.138C14.8411 10.946 15.0791 10.85 15.3751 10.85C15.7271 10.85 16.0331 11.014 16.2931 11.342L17.1871 10.544C16.9791 10.272 16.7151 10.064 16.3951 9.91998C16.0751 9.77598 15.7111 9.70398 15.3031 9.70398C14.8591 9.70398 14.4591 9.79798 14.1031 9.98598C13.7471 10.17 13.4671 10.43 13.2631 10.766C13.0631 11.098 12.9631 11.476 12.9631 11.9C12.9631 12.324 13.0631 12.704 13.2631 13.04C13.4671 13.372 13.7471 13.632 14.1031 13.82Z" fill="#8288A2"/>
<path fill-rule="evenodd" clip-rule="evenodd" d="M2 18H6V20C6 21.6569 7.34315 23 9 23H21C22.6569 23 24 21.6569 24 20V4C24 2.34315 22.6569 1 21 1H9C7.34315 1 6 2.34315 6 4V6H2C0.895431 6 0 6.89543 0 8V16C0 17.1046 0.895431 18 2 18ZM9 3H21C21.5523 3 22 3.44772 22 4V20C22 20.5523 21.5523 21 21 21H9C8.44772 21 8 20.5523 8 20V18H18C19.1046 18 20 17.1046 20 16V8C20 6.89543 19.1046 6 18 6H8V4C8 3.44772 8.44771 3 9 3ZM18 8H2V16H18V8Z" fill="#8288A2"/>
</svg>
