<svg width="24" height="21" viewBox="0 0 24 21" fill="none" xmlns="http://www.w3.org/2000/svg">
<path fill-rule="evenodd" clip-rule="evenodd" d="M7.28891 15.2845C7.67923 14.8942 8.31205 14.8942 8.70237 15.2845L11.9935 18.5755L15.2846 15.2845C15.6749 14.8942 16.3078 14.8942 16.6981 15.2845C17.0884 15.6748 17.0884 16.3076 16.6981 16.6979L12.7002 20.6956C12.3099 21.0859 11.6771 21.0859 11.2868 20.6956L7.28891 16.6979C6.8986 16.3076 6.8986 15.6748 7.28891 15.2845Z" fill="white"/>
<path fill-rule="evenodd" clip-rule="evenodd" d="M11.9935 9.99469C12.5455 9.99469 12.993 10.4421 12.993 10.9941V19.9889C12.993 20.5408 12.5455 20.9883 11.9935 20.9883C11.4415 20.9883 10.994 20.5408 10.994 19.9889V10.9941C10.994 10.4421 11.4415 9.99469 11.9935 9.99469Z" fill="white"/>
<path fill-rule="evenodd" clip-rule="evenodd" d="M8.66287 0.994092C10.0226 0.945196 11.3758 1.20539 12.6204 1.75509C13.865 2.30479 14.9687 3.12967 15.8484 4.16763C16.5585 5.0055 17.1077 5.96459 17.471 6.99643L17.9895 6.99643C19.2639 6.9956 20.5063 7.40079 21.5349 8.15323C22.5637 8.90583 23.3259 9.96666 23.7109 11.1818C24.0959 12.3969 24.0837 13.7031 23.676 14.9108C23.2683 16.1185 22.4864 17.1649 21.4436 17.8981C20.9921 18.2156 20.3687 18.1069 20.0512 17.6554C19.7337 17.2039 19.8423 16.5805 20.2938 16.263C20.989 15.7742 21.5103 15.0766 21.7821 14.2715C22.0538 13.4664 22.062 12.5956 21.8053 11.7855C21.5487 10.9754 21.0405 10.2682 20.3546 9.76647C19.6688 9.26474 18.8409 8.9946 17.9911 8.99527H16.731C16.2746 8.99527 15.8763 8.68622 15.7629 8.24425C15.4998 7.21923 15.0077 6.26724 14.3235 5.45994C13.6393 4.65264 12.7808 4.01107 11.8128 3.58352C10.8447 3.15598 9.79229 2.95361 8.73471 2.99164C7.67712 3.02967 6.64194 3.30711 5.7071 3.80308C4.77227 4.29906 3.96213 5.00063 3.33768 5.85499C2.71323 6.70935 2.29075 7.69423 2.10203 8.73549C1.91332 9.77675 1.96329 10.8473 2.24818 11.8664C2.53308 12.8856 3.04548 13.8268 3.7468 14.6193C4.1126 15.0326 4.07404 15.6643 3.66067 16.0301C3.2473 16.3958 2.61565 16.3573 2.24984 15.9439C1.34814 14.925 0.689347 13.7149 0.323053 12.4045C-0.0432415 11.0942 -0.10749 9.71781 0.135145 8.37905C0.377779 7.04029 0.920974 5.77401 1.72384 4.67555C2.5267 3.57709 3.5683 2.67506 4.77024 2.03738C5.97217 1.3997 7.30311 1.04299 8.66287 0.994092Z" fill="white"/>
</svg>
