<svg width="24" height="24" viewBox="0 0 24 24" fill="none" xmlns="http://www.w3.org/2000/svg">
<path fill-rule="evenodd" clip-rule="evenodd" d="M20.748 15.503C20.569 15.712 20.314 15.819 20.057 15.819C19.852 15.819 19.646 15.751 19.476 15.61C19.095 15.295 19.046 14.733 19.367 14.358C19.995 13.623 20.557 12.83 21.043 11.997C20.679 11.377 19.879 10.127 18.7 8.89595C16.564 6.66395 14.245 5.53295 11.809 5.53295C11.218 5.53195 10.628 5.59695 10.055 5.72895C9.57004 5.84195 9.08404 5.54495 8.97104 5.06695C8.85704 4.58895 9.15804 4.10995 9.64404 3.99895C10.353 3.83495 11.082 3.75295 11.811 3.75395C13.453 3.75395 15.066 4.17795 16.604 5.01395C17.809 5.66995 18.968 6.57695 20.048 7.71295C21.867 9.62395 22.839 11.52 22.88 11.601C23.01 11.858 23.006 12.163 22.868 12.417C22.273 13.514 21.56 14.552 20.748 15.503ZM22.711 22.739C22.535 22.912 22.304 22.999 22.073 22.999C21.842 22.999 21.611 22.912 21.435 22.739L17.226 18.592C15.61 19.623 13.768 20.21 11.824 20.241C11.819 20.241 11.814 20.241 11.809 20.241C10.165 20.241 8.55104 19.817 7.01404 18.981C5.80904 18.327 4.65004 17.418 3.56904 16.283C1.75104 14.372 0.778039 12.475 0.738039 12.396C0.607039 12.137 0.611039 11.832 0.750039 11.578C1.81704 9.61895 3.23504 7.92095 4.93804 6.48495L0.907039 2.51395C0.555039 2.16695 0.555039 1.60395 0.907039 1.25695C1.25904 0.909954 1.83004 0.909954 2.18304 1.25695L22.711 21.482C23.063 21.829 23.063 22.391 22.711 22.739ZM2.57504 12C2.93904 12.62 3.73904 13.87 4.91704 15.101C7.05104 17.33 9.36704 18.461 11.801 18.464C13.272 18.439 14.674 18.032 15.925 17.311L13.716 15.134C13.166 15.479 12.538 15.688 11.869 15.711C11.825 15.713 11.78 15.713 11.736 15.713C10.796 15.713 9.90604 15.369 9.21604 14.735C7.89204 13.52 7.68204 11.567 8.62004 10.114L6.21404 7.74295C4.75704 8.95095 3.52604 10.369 2.57504 12ZM9.95604 11.43C9.70604 12.113 9.87304 12.909 10.446 13.434C10.816 13.774 11.3 13.952 11.806 13.935C12.003 13.928 12.186 13.868 12.367 13.805L9.95604 11.43Z" fill="#8288A2"/>
</svg>
