<svg width="24" height="22" viewBox="0 0 24 22" fill="none" xmlns="http://www.w3.org/2000/svg">
<path d="M15.9964 10.786H14.7664V11.848C14.6024 11.916 14.4304 11.95 14.2504 11.95C13.9464 11.95 13.7024 11.854 13.5184 11.662C13.3384 11.47 13.2484 11.216 13.2484 10.9C13.2484 10.576 13.3404 10.32 13.5244 10.132C13.7084 9.94398 13.9564 9.84998 14.2684 9.84998C14.6324 9.84998 14.9464 10.004 15.2104 10.312L16.1164 9.51398C15.9004 9.24998 15.6284 9.04998 15.3004 8.91398C14.9764 8.77398 14.6084 8.70398 14.1964 8.70398C13.7404 8.70398 13.3304 8.79798 12.9664 8.98598C12.6064 9.16998 12.3244 9.42998 12.1204 9.76598C11.9204 10.098 11.8204 10.476 11.8204 10.9C11.8204 11.324 11.9204 11.704 12.1204 12.04C12.3244 12.372 12.6044 12.632 12.9604 12.82C13.3164 13.004 13.7184 13.096 14.1664 13.096C14.4824 13.096 14.8044 13.05 15.1324 12.958C15.4604 12.866 15.7484 12.734 15.9964 12.562V10.786Z" fill="#8288A2"/>
<path d="M5.14614 13.096C4.81814 13.096 4.52014 13.044 4.25214 12.94C3.98814 12.832 3.77014 12.676 3.59814 12.472L4.36014 11.572C4.47214 11.712 4.58214 11.816 4.69014 11.884C4.79814 11.952 4.91014 11.986 5.02614 11.986C5.17414 11.986 5.28614 11.942 5.36214 11.854C5.44214 11.766 5.48214 11.636 5.48214 11.464V9.86798H4.05414V8.79998H6.88014V11.38C6.88014 11.952 6.73214 12.382 6.43614 12.67C6.14415 12.954 5.71414 13.096 5.14614 13.096Z" fill="#8288A2"/>
<path fill-rule="evenodd" clip-rule="evenodd" d="M9.55146 8.79998C9.93946 8.79998 10.2775 8.86398 10.5655 8.99198C10.8535 9.11998 11.0755 9.30398 11.2315 9.54398C11.3875 9.78398 11.4655 10.064 11.4655 10.384C11.4655 10.704 11.3875 10.984 11.2315 11.224C11.0755 11.464 10.8535 11.648 10.5655 11.776C10.2775 11.904 9.93946 11.968 9.55146 11.968H8.94546V13H7.52946V8.79998H9.55146ZM9.46146 10.876C9.65346 10.876 9.79746 10.834 9.89346 10.75C9.98946 10.662 10.0375 10.54 10.0375 10.384C10.0375 10.228 9.98946 10.108 9.89346 10.024C9.79746 9.93598 9.65346 9.89198 9.46146 9.89198H8.94546V10.876H9.46146Z" fill="#8288A2"/>
<path fill-rule="evenodd" clip-rule="evenodd" d="M2 17H6V19C6 20.6569 7.34315 22 9 22H21C22.6569 22 24 20.6569 24 19V3C24 1.34315 22.6569 0 21 0H9C7.34315 0 6 1.34315 6 3V5H2C0.895431 5 0 5.89543 0 7V15C0 16.1046 0.895431 17 2 17ZM9 2H21C21.5523 2 22 2.44772 22 3V19C22 19.5523 21.5523 20 21 20H9C8.44772 20 8 19.5523 8 19V17H18C19.1046 17 20 16.1046 20 15V7C20 5.89543 19.1046 5 18 5H8V3C8 2.44772 8.44771 2 9 2ZM18 7H2V15H18V7Z" fill="#8288A2"/>
</svg>
