<svg width="24" height="24" viewBox="0 0 24 24" fill="none" xmlns="http://www.w3.org/2000/svg">
<path fill-rule="evenodd" clip-rule="evenodd" d="M20.5858 15.4142C20.9609 15.7893 21.4696 16 22 16C22.5523 16 23 16.4477 23 17C23 17.5523 22.5523 18 22 18H2C1.44772 18 1 17.5523 1 17C1 16.4477 1.44772 16 2 16C2.53043 16 3.03914 15.7893 3.41421 15.4142C3.78929 15.0391 4 14.5304 4 14V9C4 6.87827 4.84285 4.84344 6.34315 3.34315C7.84344 1.84285 9.87827 1 12 1C14.1217 1 16.1566 1.84285 17.6569 3.34315C19.1571 4.84344 20 6.87827 20 9V14C20 14.5304 20.2107 15.0391 20.5858 15.4142ZM7.75736 4.75736C8.88258 3.63214 10.4087 3 12 3C13.5913 3 15.1174 3.63214 16.2426 4.75736C17.3679 5.88258 18 7.4087 18 9V14C18 14.7082 18.1878 15.3971 18.5359 16H5.46411C5.81218 15.3971 6 14.7082 6 14V9C6 7.4087 6.63214 5.88258 7.75736 4.75736Z" fill="#8288A2"/>
<path d="M11.135 20.4982C10.8579 20.0205 10.246 19.8579 9.76823 20.135C9.2905 20.4121 9.12788 21.024 9.405 21.5018C9.66872 21.9564 10.0472 22.3337 10.5027 22.5961C10.9581 22.8584 11.4744 22.9965 12 22.9965C12.5256 22.9965 13.0419 22.8584 13.4973 22.5961C13.9528 22.3337 14.3313 21.9564 14.595 21.5018C14.8721 21.024 14.7095 20.4121 14.2318 20.135C13.754 19.8579 13.1421 20.0205 12.865 20.4982C12.7771 20.6498 12.6509 20.7756 12.4991 20.863C12.3473 20.9504 12.1752 20.9965 12 20.9965C11.8248 20.9965 11.6527 20.9504 11.5009 20.863C11.3491 20.7756 11.2229 20.6498 11.135 20.4982Z" fill="#8288A2"/>
</svg>
