<svg width="16" height="16" viewBox="0 0 16 16" fill="none" xmlns="http://www.w3.org/2000/svg">
<path fill-rule="evenodd" clip-rule="evenodd" d="M10.4421 2.51561C9.26024 1.98901 7.93984 1.85856 6.6778 2.1437C5.41575 2.42884 4.27969 3.1143 3.43905 4.09785C2.59841 5.08141 2.09822 6.31035 2.01309 7.6014C1.92796 8.89245 2.26244 10.1764 2.96666 11.2619C3.67087 12.3473 4.70709 13.176 5.92076 13.6244C7.13444 14.0727 8.46054 14.1168 9.7013 13.7499C10.9421 13.3831 12.031 12.625 12.8057 11.5887C13.5804 10.5524 13.9993 9.29346 14.0001 7.99961V7.38666C14.0001 7.01847 14.2986 6.71999 14.6668 6.71999C15.0349 6.71999 15.3334 7.01847 15.3334 7.38666V7.99999C15.3325 9.58137 14.8204 11.1205 13.8736 12.387C12.9267 13.6536 11.5958 14.5802 10.0793 15.0286C8.56286 15.4769 6.94207 15.4231 5.45869 14.8751C3.97531 14.327 2.70883 13.3142 1.84812 11.9876C0.98741 10.6609 0.578595 9.09162 0.682644 7.51367C0.786694 5.93572 1.39803 4.43368 2.42549 3.23156C3.45294 2.02944 4.84146 1.19165 6.38395 0.843146C7.92645 0.49464 9.54028 0.654086 10.9848 1.29771C11.3211 1.44756 11.4722 1.84168 11.3224 2.17799C11.1725 2.51431 10.7784 2.66546 10.4421 2.51561Z" fill="#4DC87E"/>
<path fill-rule="evenodd" clip-rule="evenodd" d="M15.138 2.19503C15.3985 2.45525 15.3987 2.87736 15.1385 3.13784L8.4718 9.81117C8.3468 9.9363 8.1772 10.0066 8.00033 10.0067C7.82346 10.0067 7.65382 9.93647 7.52876 9.8114L5.52876 7.8114C5.26841 7.55106 5.26841 7.12895 5.52876 6.8686C5.78911 6.60825 6.21122 6.60825 6.47157 6.8686L7.99993 8.39696L14.1952 2.1955C14.4554 1.93502 14.8775 1.93481 15.138 2.19503Z" fill="#4DC87E"/>
</svg>
