<svg width="24" height="24" viewBox="0 0 24 24" fill="none" xmlns="http://www.w3.org/2000/svg">
<path fill-rule="evenodd" clip-rule="evenodd" d="M5.75467 9.80005C6.14267 9.80005 6.48067 9.86405 6.76867 9.99205C7.05667 10.12 7.27867 10.304 7.43467 10.544C7.59067 10.784 7.66867 11.064 7.66867 11.384C7.66867 11.704 7.59067 11.984 7.43467 12.224C7.27867 12.464 7.05667 12.648 6.76867 12.776C6.48067 12.904 6.14267 12.968 5.75467 12.968H5.14867V14H3.73267V9.80005H5.75467ZM5.66467 11.876C5.85667 11.876 6.00067 11.834 6.09667 11.75C6.19267 11.662 6.24067 11.54 6.24067 11.384C6.24067 11.228 6.19267 11.108 6.09667 11.024C6.00067 10.936 5.85667 10.892 5.66467 10.892H5.14867V11.876H5.66467Z" fill="#8288A2"/>
<path fill-rule="evenodd" clip-rule="evenodd" d="M8.13306 9.80005H10.2031C10.6711 9.80005 11.0831 9.88605 11.4391 10.058C11.7991 10.226 12.0771 10.468 12.2731 10.784C12.4731 11.1 12.5731 11.472 12.5731 11.9C12.5731 12.328 12.4731 12.7 12.2731 13.016C12.0771 13.332 11.7991 13.576 11.4391 13.748C11.0831 13.916 10.6711 14 10.2031 14H8.13306V9.80005ZM10.1431 12.896C10.4471 12.896 10.6891 12.81 10.8691 12.638C11.0531 12.462 11.1451 12.216 11.1451 11.9C11.1451 11.584 11.0531 11.34 10.8691 11.168C10.6891 10.992 10.4471 10.904 10.1431 10.904H9.54906V12.896H10.1431Z" fill="#8288A2"/>
<path d="M14.5061 11.588V10.868H16.5041V9.80005H13.0901V14H14.5061V12.656H16.2581V11.588H14.5061Z" fill="#8288A2"/>
<path fill-rule="evenodd" clip-rule="evenodd" d="M2 18H6V20C6 21.6569 7.34315 23 9 23H21C22.6569 23 24 21.6569 24 20V4C24 2.34315 22.6569 1 21 1H9C7.34315 1 6 2.34315 6 4V6H2C0.895431 6 0 6.89543 0 8V16C0 17.1046 0.895431 18 2 18ZM9 3H21C21.5523 3 22 3.44772 22 4V20C22 20.5523 21.5523 21 21 21H9C8.44772 21 8 20.5523 8 20V18H18C19.1046 18 20 17.1046 20 16V8C20 6.89543 19.1046 6 18 6H8V4C8 3.44772 8.44771 3 9 3ZM18 8H2V16H18V8Z" fill="#8288A2"/>
</svg>
