<svg width="16" height="14" viewBox="0 0 16 14" fill="none" xmlns="http://www.w3.org/2000/svg">
<path fill-rule="evenodd" clip-rule="evenodd" d="M1.33317 1.00004C1.70136 1.00004 1.99984 1.29852 1.99984 1.66671V5.00004H5.33317C5.70136 5.00004 5.99984 5.29852 5.99984 5.66671C5.99984 6.0349 5.70136 6.33337 5.33317 6.33337H1.33317C0.964981 6.33337 0.666504 6.0349 0.666504 5.66671V1.66671C0.666504 1.29852 0.964981 1.00004 1.33317 1.00004Z" fill="#EF223A"/>
<path fill-rule="evenodd" clip-rule="evenodd" d="M7.73674 0.404628C9.16802 0.203255 10.626 0.472493 11.8909 1.17177C13.1559 1.87106 14.1593 2.9625 14.75 4.28165C15.3408 5.60081 15.4868 7.07621 15.166 8.48555C14.8453 9.89489 14.0753 11.1618 12.9719 12.0955C11.8685 13.0291 10.4916 13.5789 9.04862 13.6619C7.60564 13.745 6.17474 13.3568 4.97154 12.5559C3.76834 11.755 2.85801 10.5848 2.37772 9.22158C2.25537 8.87431 2.43771 8.49361 2.78498 8.37127C3.13224 8.24892 3.51294 8.43125 3.63529 8.77852C4.01952 9.86911 4.74778 10.8053 5.71035 11.446C6.6729 12.0867 7.81762 12.3972 8.97201 12.3308C10.1264 12.2644 11.2279 11.8245 12.1106 11.0776C12.9933 10.3307 13.6094 9.31717 13.8659 8.18969C14.1225 7.06222 14.0057 5.8819 13.5331 4.82658C13.0606 3.77125 12.2578 2.8981 11.2459 2.33867C10.2339 1.77925 9.06753 1.56386 7.92251 1.72496C6.77748 1.88606 5.71583 2.41492 4.89751 3.23185C4.89275 3.2366 4.88792 3.24128 4.88302 3.24588L1.78969 6.15255C1.52137 6.40468 1.09947 6.39155 0.847337 6.12323C0.595209 5.85491 0.608335 5.43301 0.876655 5.18088L3.96283 2.28094C4.98474 1.26392 6.30888 0.60552 7.73674 0.404628Z" fill="#EF223A"/>
</svg>
