<svg width="23" height="17" viewBox="0 0 23 17" fill="none" xmlns="http://www.w3.org/2000/svg">
<path fill-rule="evenodd" clip-rule="evenodd" d="M22.229 8.94295C22.189 9.02195 21.217 10.9209 19.4 12.8339C18.321 13.9709 17.163 14.8789 15.959 15.5349C14.422 16.3709 12.81 16.7959 11.167 16.7959C9.525 16.7959 7.913 16.3709 6.376 15.5349C5.172 14.8789 4.014 13.9709 2.935 12.8339C1.117 10.9209 0.145998 9.02195 0.104998 8.94295C-0.0210019 8.69195 -0.0210019 8.39695 0.104998 8.14695C0.145998 8.06695 1.117 6.16895 2.935 4.25495C4.014 3.11895 5.172 2.21095 6.376 1.55395C7.913 0.717945 9.525 0.293945 11.167 0.293945C12.81 0.293945 14.422 0.717945 15.959 1.55395C17.163 2.20995 18.321 3.11895 19.4 4.25495C21.217 6.16895 22.189 8.06695 22.229 8.14695C22.356 8.39695 22.356 8.69195 22.229 8.94295ZM18.053 5.43895C15.919 3.20495 13.602 2.07295 11.167 2.07295C6.104 2.07295 2.799 7.07895 1.94 8.54495C2.303 9.16395 3.103 10.4169 4.282 11.6509C6.416 13.8839 8.733 15.0169 11.167 15.0169C16.23 15.0169 19.536 10.0099 20.395 8.54495C20.032 7.92495 19.232 6.67295 18.053 5.43895ZM11.167 12.1949C9.128 12.1949 7.469 10.5569 7.469 8.54495C7.469 6.53195 9.128 4.89495 11.167 4.89495C13.207 4.89495 14.866 6.53195 14.866 8.54495C14.866 10.5569 13.207 12.1949 11.167 12.1949ZM11.167 6.67394C10.122 6.67394 9.272 7.51395 9.272 8.54495C9.272 9.57595 10.122 10.4159 11.167 10.4159C12.213 10.4159 13.063 9.57595 13.063 8.54495C13.063 7.51395 12.213 6.67394 11.167 6.67394Z" fill="#8288A2"/>
</svg>
